<?xml version="1.0" encoding="utf-8"?>
<!-- Generator: Adobe Illustrator 25.1.0, SVG Export Plug-In . SVG Version: 6.00 Build 0)  -->
<svg version="1.1" id="regular" xmlns="http://www.w3.org/2000/svg" xmlns:xlink="http://www.w3.org/1999/xlink" x="0px" y="0px"
	 viewBox="0 0 512 512" style="enable-background:new 0 0 512 512;" xml:space="preserve">
<style type="text/css">
	.st0{fill:#F43A3A;}
</style>
<path class="st0" d="M3.9,223.2c-16.6,104.7,29.9,230.9,173.3,277.5c2.6,0.5,4.9,0.7,7.1,0.7c16.7,0,28.2-12.4,28.2-27.7
	c-2.1-11.2,8.2-56.4-19.6-50.3c-53.7,11.4-60.2-18.6-68.4-34.3c23.2,29.7,58,29,84.2,17.5c14.6-6.4,7-22.7,13.9-28.7
	c10.6-9.1,5.2-26.5-8.7-28c-49.4-5.4-95.1-21.4-95.1-100.3c0-46.3,32.1-50.4,23.3-69.7c-0.3-0.7-7.1-16.1-1-39.4
	c30.3,5.6,44.2,27.3,58.7,23.4c36-9.8,75.6-9.8,111.6,0c15,4,25.7-17.1,58.4-23.5c9.4,35.3-10.1,43.9,2.2,57.1
	c13.5,14.5,20.3,32.1,20.3,52.2c0,118.7-100.6,84.4-108.8,111.4c-1.9,6.1,0.1,12.8,5,16.9c13,10.9,11.3,39,9.9,61.6
	c-1.4,23.4-2.7,43.6,10.3,55c4.6,4.1,12.7,8.4,27.4,5.4c141.5-45.5,188.4-171.1,172-275.6C463.5-60.9,49-60.6,3.9,223.2L3.9,223.2z
	 M180.4,457.4l0.1,10.8c-11.2-3.9-21.7-8.3-31.5-13.3C158,457.2,168.4,458.2,180.4,457.4z M188.2,378.5c-0.1,0.6-0.2,1.1-0.3,1.7
	c-18.2,5.4-32.2,0-41.7-16c0,0,0,0,0,0C160.7,371.8,175.6,376,188.2,378.5L188.2,378.5z M256,42.7c252.4,0,309.4,347,74,425.4
	c-0.8-6.3-0.1-18.3,0.4-26.7c1.2-20.3,2.7-43.9-4.5-63.7c108.5-22.6,117.6-141.8,75.8-194.9c5.2-20.3,3.1-68-15.6-73.9
	c-4.4-1.4-27.8-6.5-73.3,22.1c-37.1-8.9-77.2-8.9-114.4,0c-22.7-14.2-73.9-37.4-83.7-12.8c-11.4,28.6-8.7,51.8-5.3,64.6
	c-37.1,47-26,125.7,11.4,162.7c-21.2-10.1-50.4-13.6-56.7,6.7c-6.9,22.1,19.5,19.4,35.8,59.8c1.6,5,4.4,10.9,8.9,16.8
	C-36.4,310.2,33.7,42.7,256,42.7L256,42.7z"/>
</svg>
