<?xml version="1.0" encoding="utf-8"?>
<!-- Generator: Adobe Illustrator 25.1.0, SVG Export Plug-In . SVG Version: 6.00 Build 0)  -->
<svg version="1.1" id="Capa_1" xmlns="http://www.w3.org/2000/svg" xmlns:xlink="http://www.w3.org/1999/xlink" x="0px" y="0px"
	 viewBox="0 0 512 512" style="enable-background:new 0 0 512 512;" xml:space="preserve">
<style type="text/css">
	.st0{fill:#F43A3A;}
</style>
<path class="st0" d="M9.7,352.3l234,156c8,4.9,16.5,5,24.6,0l234-156c6-4,9.7-11.1,9.7-18.3V178c0-7.1-3.7-14.3-9.7-18.3l-234-156
	c-8-4.9-16.5-4.9-24.6,0l-234,156c-6,4-9.7,11.1-9.7,18.3v156C0,341.1,3.7,348.3,9.7,352.3L9.7,352.3z M234,448.9L61.7,334
	l76.9-51.4l95.4,63.7V448.9z M278,448.9V346.3l95.4-63.7l76.9,51.4L278,448.9z M468,292.8L412.9,256l55.1-36.9V292.8z M278,63.1
	L450.3,178l-76.9,51.4L278,165.7V63.1z M256,204l77.7,52L256,308l-77.7-52L256,204z M234,63.1v102.6l-95.4,63.7L61.7,178L234,63.1z
	 M44,219.2L44,219.2L99.2,256L44,292.9V219.2z"/>
</svg>
