<svg width="25" height="33" viewBox="0 0 25 33" fill="none" xmlns="http://www.w3.org/2000/svg">
<path d="M12.2 16.5C12.2 15.1739 12.7689 13.9021 13.7816 12.9645C14.7943 12.0268 16.1678 11.5 17.6 11.5C19.0322 11.5 20.4057 12.0268 21.4184 12.9645C22.4311 13.9021 23 15.1739 23 16.5C23 17.8261 22.4311 19.0978 21.4184 20.0355C20.4057 20.9732 19.0322 21.5 17.6 21.5C16.1678 21.5 14.7943 20.9732 13.7816 20.0355C12.7689 19.0978 12.2 17.8261 12.2 16.5V16.5Z" stroke="#1E1E1E" stroke-width="2.5"/>
<path d="M1.40002 26.5C1.40002 25.1739 1.96895 23.9021 2.98165 22.9645C3.99434 22.0268 5.36786 21.5 6.80002 21.5H12.2V26.5C12.2 27.8261 11.6311 29.0978 10.6184 30.0355C9.6057 30.9732 8.23219 31.5 6.80002 31.5C5.36786 31.5 3.99434 30.9732 2.98165 30.0355C1.96895 29.0978 1.40002 27.8261 1.40002 26.5Z" stroke="#1E1E1E" stroke-width="2.5"/>
<path d="M12.2 1.5V11.5H17.6C19.0322 11.5 20.4057 10.9732 21.4184 10.0355C22.4311 9.09785 23 7.82608 23 6.5C23 5.17392 22.4311 3.90215 21.4184 2.96447C20.4057 2.02678 19.0322 1.5 17.6 1.5L12.2 1.5Z" stroke="#1E1E1E" stroke-width="2.5"/>
<path d="M1.40002 6.5C1.40002 7.82608 1.96895 9.09785 2.98165 10.0355C3.99434 10.9732 5.36786 11.5 6.80002 11.5H12.2V1.5H6.80002C5.36786 1.5 3.99434 2.02678 2.98165 2.96447C1.96895 3.90215 1.40002 5.17392 1.40002 6.5Z" stroke="#1E1E1E" stroke-width="2.5"/>
<path d="M1.40002 16.5C1.40002 17.8261 1.96895 19.0978 2.98165 20.0355C3.99434 20.9732 5.36786 21.5 6.80002 21.5H12.2V11.5H6.80002C5.36786 11.5 3.99434 12.0268 2.98165 12.9645C1.96895 13.9021 1.40002 15.1739 1.40002 16.5Z" stroke="#1E1E1E" stroke-width="2.5"/>
</svg>
